<svg width="389" height="700" viewBox="0 0 389 700" fill="none" xmlns="http://www.w3.org/2000/svg">
<path d="M388.098 252.969C388.098 270.632 386.515 287.925 383.482 304.715C367.586 392.734 311.869 466.908 235.704 507.977V252.969H388.098Z" fill="black"/>
<path fill-rule="evenodd" clip-rule="evenodd" d="M388.098 252.974C388.098 270.638 386.515 287.93 383.482 304.721C367.586 392.739 311.869 466.914 235.704 507.982V152.394C235.704 68.2293 303.932 0 388.098 0V252.974Z" fill="#CDC733"/>
<path d="M152.394 444.99C152.394 462.654 150.811 479.947 147.779 496.737C131.882 584.755 76.1651 658.93 0 699.997V444.99H152.394Z" fill="black"/>
<path fill-rule="evenodd" clip-rule="evenodd" d="M152.394 444.993C152.394 462.657 150.811 479.95 147.779 496.74C131.882 584.758 76.1651 658.933 0 700V344.414C0 260.249 68.2293 192.02 152.394 192.02V444.993Z" fill="#CDC733"/>
<path d="M76.1972 152.394C118.28 152.394 152.394 118.28 152.394 76.1972C152.394 34.1146 118.28 0 76.1972 0C34.1146 0 0 34.1146 0 76.1972C0 118.28 34.1146 152.394 76.1972 152.394Z" fill="white"/>
</svg>
